HIERARCHY
ROOT Pelvis
{
	OFFSET 0.000000 0.941512 0.000000
	CHANNELS 6 Xposition Yposition Zposition Zrotation Yrotation Xrotation 
	JOINT Pelvis_L_Hip
	{
		OFFSET 0.000000 0.000000 0.000000
		CHANNELS 3 Zrotation Yrotation Xrotation
		JOINT L_Hip
		{
			OFFSET 0.062321 -0.080322 -0.016990
			CHANNELS 3 Zrotation Yrotation Xrotation
			JOINT L_Knee
			{
				OFFSET 0.093051 -0.381305 -0.029784
				CHANNELS 3 Zrotation Yrotation Xrotation
				JOINT L_Ankle
				{
					OFFSET -0.010371 -0.431000 -0.033614
					CHANNELS 3 Zrotation Yrotation Xrotation
					End Site #name: L_Foot
					{
						OFFSET 0.069299 -0.038670 0.119418
					}
				}
			}
		}
	}
	JOINT Pelvis_R_Hip
	{
		OFFSET 0.000000 0.000000 0.000000
		CHANNELS 3 Zrotation Yrotation Xrotation
		JOINT R_Hip
		{
			OFFSET -0.055334 -0.094904 -0.002373
			CHANNELS 3 Zrotation Yrotation Xrotation
			JOINT R_Knee
			{
				OFFSET -0.064207 -0.384370 -0.019592
				CHANNELS 3 Zrotation Yrotation Xrotation
				JOINT R_Ankle
				{
					OFFSET 0.025418 -0.419734 -0.065953
					CHANNELS 3 Zrotation Yrotation Xrotation
					End Site #name: R_Foot
					{
						OFFSET -0.057233 -0.039888 0.132134
					}
				}
			}
		}
	}
	JOINT Pelvis_Spine1
	{
		OFFSET 0.000000 0.000000 0.000000
		CHANNELS 3 Zrotation Yrotation Xrotation
		JOINT Spine1
		{
			OFFSET -0.005562 0.124093 -0.043360
			CHANNELS 3 Zrotation Yrotation Xrotation
			JOINT Spine2
			{
				OFFSET 0.012244 0.139499 0.029894
				CHANNELS 3 Zrotation Yrotation Xrotation
				JOINT Spine3
				{
					OFFSET -0.002556 0.056561 0.009225
					CHANNELS 3 Zrotation Yrotation Xrotation
					JOINT Spine3_Neck
					{
						OFFSET 0.000000 0.000000 0.000000
						CHANNELS 3 Zrotation Yrotation Xrotation
						JOINT Neck
						{
							OFFSET -0.005205 0.217920 -0.024551
							CHANNELS 3 Zrotation Yrotation Xrotation
							End Site #name: Head
							{
								OFFSET 0.002365 0.091850 0.046637
							}
						}
					}
					JOINT Spine3_L_Collar
					{
						OFFSET 0.000000 0.000000 0.000000
						CHANNELS 3 Zrotation Yrotation Xrotation
						JOINT L_Collar
						{
							OFFSET 0.072225 0.116603 -0.009480
							CHANNELS 3 Zrotation Yrotation Xrotation
							JOINT L_Shoulder
							{
								OFFSET 0.115937 -0.058643 -0.021018
								CHANNELS 3 Zrotation Yrotation Xrotation
								JOINT L_Elbow
								{
									OFFSET 0.021994 -0.254722 -0.024492
									CHANNELS 3 Zrotation Yrotation Xrotation
									End Site #name: L_Wrist
									{
										OFFSET 0.048810 -0.240214 0.103329
									}
								}
							}
						}
					}
					JOINT Spine3_R_Collar
					{
						OFFSET 0.000000 0.000000 0.000000
						CHANNELS 3 Zrotation Yrotation Xrotation
						JOINT R_Collar
						{
							OFFSET -0.073372 0.120704 -0.024611
							CHANNELS 3 Zrotation Yrotation Xrotation
							JOINT R_Shoulder
							{
								OFFSET -0.108089 -0.054969 -0.020504
								CHANNELS 3 Zrotation Yrotation Xrotation
								JOINT R_Elbow
								{
									OFFSET -0.033684 -0.260739 0.009889
									CHANNELS 3 Zrotation Yrotation Xrotation
									End Site #name: R_Wrist
									{
										OFFSET -0.067980 -0.232763 0.118463
									}
								}
							}
						}
					}
				}
			}
		}
	}
}
MOTION
Frames: 5
Frame Time: 0.041667
-1.048944 0.979664 1.711198 -5.045385 21.591828 -1.561174 0.000000 0.000000 0.000000 -2.844584 -1.242333 -5.802125 6.167228 -1.255480 9.366214 -14.266973 -22.140165 9.371352 0.000000 0.000000 0.000000 3.321008 2.859353 -16.813064 -13.405194 3.442477 8.905655 42.848487 48.425966 37.107061 0.000000 0.000000 0.000000 -1.021672 -0.152767 3.023427 -3.064667 0.449089 -0.988430 3.091167 11.354292 5.610457 0.000000 0.000000 0.000000 -14.575562 6.582323 -0.905916 0.000000 0.000000 0.000000 23.295098 -8.425057 2.355414 -19.036022 -3.177253 -19.710911 -9.720290 -5.239835 -3.124842 0.000000 0.000000 0.000000 -35.348927 9.156986 -7.735644 29.422511 -4.030701 13.682332 8.185023 7.960587 -9.065344 
-1.058166 0.975732 1.725773 -2.760895 26.141368 -0.472341 0.000000 0.000000 0.000000 -3.642495 -1.531715 -6.979141 6.212694 -1.425240 10.700368 -15.395783 -25.591799 9.362332 0.000000 0.000000 0.000000 1.934444 2.438509 -15.419873 -14.526801 3.659616 9.410505 37.797175 49.313863 30.803373 0.000000 0.000000 0.000000 -2.830499 0.217477 2.923465 -3.070411 0.421399 -1.394899 3.742073 13.724486 5.903842 0.000000 0.000000 0.000000 -15.641345 6.706836 -2.141518 0.000000 0.000000 0.000000 22.414318 -6.983993 4.210474 -18.454030 -3.541225 -21.093021 -5.728675 -1.837518 2.487934 0.000000 0.000000 0.000000 -35.258752 9.850817 -9.867667 28.676477 -4.523610 15.257290 8.782560 8.078515 -8.433271 
-1.070145 0.972187 1.738100 -1.270165 30.292641 0.873675 0.000000 0.000000 0.000000 -3.030292 -2.042150 -8.772405 5.582566 -1.485460 11.935341 -17.107498 -27.851925 10.465758 0.000000 0.000000 0.000000 1.040462 2.051260 -13.498110 -13.883091 3.260610 7.934072 29.973190 47.104015 22.591012 0.000000 0.000000 0.000000 -3.783419 0.390862 2.765919 -3.209992 0.442991 -1.444954 4.342435 16.412576 5.966025 0.000000 0.000000 0.000000 -16.919879 6.804602 -3.269048 0.000000 0.000000 0.000000 21.084338 -4.881419 6.381686 -16.333724 -3.651152 -21.973213 -2.825360 0.004131 5.335179 0.000000 0.000000 0.000000 -35.467072 11.394513 -12.980680 27.133156 -5.471640 18.304927 10.003248 9.404716 -9.610825 
-1.085855 0.971944 1.747950 -0.494662 33.775203 2.254654 0.000000 0.000000 0.000000 -1.160910 -2.582913 -10.634156 4.327861 -1.291428 12.009865 -19.231288 -28.673168 12.457504 0.000000 0.000000 0.000000 0.993294 1.895984 -12.569052 -13.063781 2.891630 6.572168 25.266443 44.024452 18.284976 0.000000 0.000000 0.000000 -4.753458 0.505231 3.070906 -2.953535 0.345915 -2.148500 5.121987 19.117289 6.018486 0.000000 0.000000 0.000000 -18.344271 6.844100 -4.645907 0.000000 0.000000 0.000000 19.562938 -2.091116 8.810172 -13.922806 -3.657535 -22.659858 -1.104527 1.148163 7.718787 0.000000 0.000000 0.000000 -36.374471 13.173643 -16.497838 26.858735 -5.611654 19.078009 10.623381 8.714833 -7.188094 
-1.101284 0.975251 1.755124 0.290964 37.034707 3.612659 0.000000 0.000000 0.000000 0.357065 -2.887582 -11.669828 3.506425 -0.940343 10.061697 -21.156248 -27.423034 14.727134 0.000000 0.000000 0.000000 0.471680 1.851129 -13.034165 -11.932999 2.682386 6.942629 23.206200 41.731402 16.875391 0.000000 0.000000 0.000000 -5.998924 0.679303 3.086301 -2.872230 0.338129 -2.127533 6.169063 21.450991 5.932796 0.000000 0.000000 0.000000 -20.082782 6.872554 -5.505475 0.000000 0.000000 0.000000 18.786423 -0.008557 10.928670 -11.479904 -3.164410 -21.285942 -1.617641 0.624011 6.070416 0.000000 0.000000 0.000000 -37.333465 15.073953 -20.243002 25.961765 -5.898280 20.450291 11.160725 8.752930 -6.510185 
